# xmcd
# 
# Track frame offsets:
#     150
#     17370
#     38987
#     58691
#     78197
#     99391
#     124447
#     146957
#     163394
#     187691
#     201023
# 
# Disc length: 2891
# 
# Revision: 1
# Processed by: cddbd v1.5.2PL0 Copyright (c) Steve Scherf et al.
# Submitted via: fre:ac v1.0.27
# 
DISCID=920b490b
DTITLE=Various Artist - Rec 73 Willy Bleyen
DYEAR=0
DGENRE=Top 40
TTITLE0=Shaggy - It Wasn't Me
TTITLE1=Genesis - Land of Confusion
TTITLE2=Madonna - Beautiful Stranger
TTITLE3=Phil Collins - Can't Stop Loving You
TTITLE4=Paul Simon - You Can Call Me Al
TTITLE5=Rod Stewart - Passion
TTITLE6=Michael Jackson - The Way You Make Me Feel
TTITLE7=Freddie Mercury - Living On My Own
TTITLE8=Aerosmith - Love In an Elevator (Single Version)
TTITLE9=Phil Collins - You Can't Hurry Love (2016 Remastered)
TTITLE10=The Cure - Just Like Heaven
EXTD=OTS
EXTT0=
EXTT1=
EXTT2=
EXTT3=
EXTT4=
EXTT5=
EXTT6=
EXTT7=
EXTT8=
EXTT9=
EXTT10=
PLAYORDER=
